<svg xmlns="http://www.w3.org/2000/svg" xmlns:xlink="http://www.w3.org/1999/xlink" width="90" zoomAndPan="magnify" viewBox="0 0 67.5 67.499996" height="90" preserveAspectRatio="xMidYMid meet" version="1.0"><defs><clipPath id="a802b19886"><path d="M 3.351562 3.351562 L 63.652344 3.351562 L 63.652344 63.652344 L 3.351562 63.652344 Z M 3.351562 3.351562 " clip-rule="nonzero"/></clipPath><clipPath id="869d2dc513"><path d="M 33.5 3.351562 C 16.847656 3.351562 3.351562 16.847656 3.351562 33.5 C 3.351562 50.152344 16.847656 63.652344 33.5 63.652344 C 50.152344 63.652344 63.652344 50.152344 63.652344 33.5 C 63.652344 16.847656 50.152344 3.351562 33.5 3.351562 Z M 33.5 3.351562 " clip-rule="nonzero"/></clipPath><clipPath id="addd26d16d"><path d="M 3.351562 3.351562 L 63.652344 3.351562 L 63.652344 63.652344 L 3.351562 63.652344 Z M 3.351562 3.351562 " clip-rule="nonzero"/></clipPath></defs><g clip-path="url(#a802b19886)"><g clip-path="url(#869d2dc513)"><path fill="#ffffff" d="M 3.351562 3.351562 L 63.652344 3.351562 L 63.652344 63.652344 L 3.351562 63.652344 Z M 3.351562 3.351562 " fill-opacity="1" fill-rule="nonzero"/></g></g><g clip-path="url(#addd26d16d)"><path fill="#000000" d="M 33.511719 3.339844 C 50.164062 3.339844 63.664062 16.839844 63.664062 33.492188 C 63.664062 46.199219 55.800781 57.070312 44.671875 61.507812 L 44.230469 52.007812 L 44.230469 51.992188 C 44.257812 50.109375 45.050781 48.632812 46.808594 47.886719 L 47.035156 47.796875 L 47.046875 47.792969 L 47.0625 47.785156 L 47.085938 47.777344 C 48.378906 47.253906 49.4375 46.546875 50.15625 45.320312 C 51.054688 43.796875 51.226562 41.765625 51.226562 40.039062 C 51.226562 36.714844 50.25 32.792969 48.558594 29.921875 C 47.359375 27.878906 45.46875 25.8125 42.914062 25.8125 C 40.363281 25.8125 38.46875 27.878906 37.269531 29.921875 C 35.582031 32.792969 34.605469 36.714844 34.605469 40.039062 C 34.605469 41.769531 34.777344 43.800781 35.675781 45.320312 C 36.402344 46.554688 37.472656 47.261719 38.773438 47.789062 C 38.808594 47.800781 38.847656 47.816406 38.882812 47.832031 L 38.890625 47.832031 L 39.003906 47.878906 C 40.773438 48.625 41.574219 50.085938 41.597656 51.992188 L 41.597656 52.007812 L 41.105469 62.679688 C 38.679688 63.308594 36.132812 63.644531 33.511719 63.644531 C 30.796875 63.644531 28.164062 63.285156 25.664062 62.613281 L 25.199219 52.621094 L 25.199219 52.597656 C 25.222656 50.671875 26.046875 49.152344 27.847656 48.390625 L 28.078125 48.300781 L 28.09375 48.292969 L 28.121094 48.285156 C 29.394531 47.769531 30.429688 47.078125 31.136719 45.875 C 32.023438 44.371094 32.195312 42.355469 32.195312 40.648438 C 32.195312 40.484375 32.1875 40.316406 32.175781 40.152344 C 32.171875 40.058594 32.164062 39.960938 32.152344 39.871094 L 32.136719 39.730469 L 32.160156 39.636719 L 31.066406 26.882812 L 29.917969 26.882812 L 29.820312 40.363281 L 27.910156 40.550781 L 26.773438 25.316406 L 25.53125 25.390625 L 25.285156 40.738281 L 24.609375 40.769531 C 24.46875 40.773438 24.324219 40.777344 24.1875 40.777344 C 24.046875 40.777344 23.902344 40.773438 23.761719 40.769531 L 23.089844 40.738281 L 22.742188 25.390625 L 21.5 25.320312 L 20.464844 40.554688 L 18.550781 40.363281 L 18.457031 26.882812 L 17.300781 26.882812 L 15.820312 39.640625 L 15.84375 39.730469 L 15.828125 39.867188 C 15.820312 39.960938 15.8125 40.058594 15.804688 40.152344 C 15.792969 40.316406 15.789062 40.484375 15.789062 40.648438 C 15.789062 42.355469 15.957031 44.371094 16.84375 45.875 C 17.558594 47.085938 18.605469 47.777344 19.886719 48.292969 C 19.917969 48.304688 19.945312 48.316406 19.976562 48.332031 L 19.984375 48.332031 L 20.117188 48.386719 C 21.925781 49.148438 22.753906 50.648438 22.78125 52.597656 L 22.78125 52.621094 L 22.371094 61.523438 C 11.226562 57.09375 3.351562 46.214844 3.351562 33.492188 C 3.359375 16.839844 16.859375 3.339844 33.511719 3.339844 " fill-opacity="1" fill-rule="evenodd"/></g></svg>